<?xml version="1.0" encoding="UTF-8"?>
<svg width="398px" height="263px" viewBox="0 0 398 263" version="1.1" xmlns="http://www.w3.org/2000/svg" xmlns:xlink="http://www.w3.org/1999/xlink">
    <!-- Generator: Sketch 51.1 (57501) - http://www.bohemiancoding.com/sketch -->
    <title>Delegataire</title>
    <desc>Created with Sketch.</desc>
    <defs></defs>
    <g id="Emails" stroke="none" stroke-width="1" fill="none" fill-rule="evenodd">
        <g id="Email-Demandeur-Delegate-connu" transform="translate(-111.000000, -468.000000)">
            <g id="Delegataire" transform="translate(111.000000, 468.000000)">
                <path d="M314.74868,204.99623 L207.676253,250.445779 C198.139953,254.493698 187.127766,250.044486 183.079847,240.508185 C181.281481,236.2715 181.160237,231.743512 182.417098,227.664318 L98.3877051,261.614396 C88.7822109,265.495268 77.8493513,260.854544 73.9684798,251.24905 C70.0876082,241.643556 74.7283318,230.710696 84.333826,226.829825 L85.8941561,226.199411 C77.7923504,227.038371 69.7820507,222.492183 66.5781259,214.562191 C64.0085894,208.202365 65.1747525,201.260648 69.0442366,196.169172 L25.789295,213.645303 C16.1838008,217.526174 5.2509412,212.885451 1.37006963,203.279956 C-2.51080194,193.674462 2.12992163,182.741603 11.7354158,178.860731 L36.1885358,168.981029 C28.8608661,168.882119 21.9587906,164.467015 19.0415186,157.246513 C15.160647,147.641019 19.8013706,136.70816 29.4068648,132.827288 L73.2513482,115.112967 C67.9515712,113.548107 63.3903956,109.667039 61.159506,104.145393 C57.2786344,94.5398989 61.919358,83.6070393 71.5248522,79.7261677 L161.997145,43.1729887 C168.46332,40.5604845 175.531009,41.809661 180.644019,45.8354787 L256.794789,13.511395 C266.331089,9.46347548 277.343275,13.9126875 281.391195,23.4489882 C283.451721,28.3032838 283.310513,33.5400034 281.417349,38.0459063 L315.913129,23.4033165 C325.44943,19.355397 336.461616,23.804609 340.509536,33.3409097 C342.825888,38.7978941 342.359851,44.7381578 339.750392,49.580203 L363.086027,39.6748134 C372.622328,35.6268939 383.634514,40.076106 387.682434,49.6124066 C391.730353,59.1487073 387.281141,70.1608936 377.74484,74.2088131 L353.038871,84.6958749 C360.362647,84.6717478 367.334605,88.964924 370.375741,96.1293917 C373.054878,102.441044 372.011825,109.399211 368.235247,114.556862 L371.90844,112.997685 C381.44474,108.949765 392.456927,113.398977 396.504846,122.935278 C400.552766,132.471579 396.103554,143.483765 386.567253,147.531684 L371.925038,153.746936 C379.999612,152.783184 388.070021,157.187555 391.407163,165.049369 C395.455082,174.58567 391.00587,185.597856 381.46957,189.645775 L335.50479,209.156667 C328.182683,212.264717 319.990483,210.363379 314.74868,204.99623 Z" id="Bg" fill="#C2FFEE"></path>
                <g id="conseillere-copy-5" transform="translate(149.000000, 0.000000)">
                    <circle id="Oval" fill="#B3B3B3" fill-rule="nonzero" cx="46" cy="46" r="46"></circle>
                    <path d="M26,34 C26,22.9543 34.9543,14 46,14 C57.0457,14 66,22.9543 66,34 L66,51.9869996 C66,56.4124604 62.4150544,60 58.0015412,60 L33.9984588,60 C29.5810394,60 26,56.4121018 26,51.9869996 L26,34 Z" id="Shape" fill="#444444"></path>
                    <rect id="Rectangle-path" fill="#EAC3A2" x="36" y="46" width="20" height="22.8260804"></rect>
                    <path d="M72.618164,68.309082 L56,60 C56,60 52,64 46,64 C40,64 36,60 36,60 L19.381836,68.309082 C16.3962402,69.8018798 14,73.6785888 14,76.9829102 L14,79.0289308 C22.2802734,87.0528564 33.5594482,92 46,92 C58.4405518,92 69.7197266,87.0528564 78,79.0289306 L78,76.98291 C78,73.6833496 75.5904542,69.795166 72.618164,68.309082 Z" id="Shape" fill="#DF286E"></path>
                    <path d="M30,37.0908966 L30,40 C30,48.8218194 37.1781806,56 46,56 C54.8218194,56 62,48.8218194 62,40 L62,37.0908966 C62,34.6809388 60.046341,32.7272568 57.6363602,32.7272568 C52.5702782,32.7272568 48.1763382,29.849537 46,25.639557 C43.8236618,29.849537 39.4297218,32.7272568 34.3636398,32.7272568 C31.953659,32.7272568 30,34.6809388 30,37.0908966 Z" id="Shape" fill="#EAD8C5"></path>
                    <path d="M39.1450614,47.424582 C41.17116,47.7909959 43.5096447,48 46,48 C48.4903553,48 50.82884,47.7909959 52.8549386,47.424582 C52.1968945,50.6074631 49.3778507,53 46,53 C42.6221493,53 39.8031055,50.6074631 39.1450614,47.424582 Z" id="Combined-Shape" fill="#C4AD95"></path>
                    <circle id="Oval-3" fill="#444444" cx="40" cy="39" r="1"></circle>
                    <circle id="Oval-3" fill="#444444" cx="51" cy="39" r="1"></circle>
                </g>
            </g>
        </g>
    </g>
</svg>