<?xml version="1.0" encoding="UTF-8"?>
<svg width="398px" height="444px" viewBox="0 0 398 444" version="1.1" xmlns="http://www.w3.org/2000/svg" xmlns:xlink="http://www.w3.org/1999/xlink">
    <!-- Generator: Sketch 51.1 (57501) - http://www.bohemiancoding.com/sketch -->
    <title>Avril</title>
    <desc>Created with Sketch.</desc>
    <defs></defs>
    <g id="Emails" stroke="none" stroke-width="1" fill="none" fill-rule="evenodd">
        <g id="Email-Demandeur-Delegate-connu" transform="translate(-115.000000, -1912.000000)">
            <g id="Avril" transform="translate(115.000000, 1801.000000)">
                <g transform="translate(0.000000, 46.000000)">
                    <path d="M314.74868,378.99623 L207.676253,424.445779 C198.139953,428.493698 187.127766,424.044486 183.079847,414.508185 C181.281481,410.2715 181.160237,405.743512 182.417098,401.664318 L98.3877051,435.614396 C88.7822109,439.495268 77.8493513,434.854544 73.9684798,425.24905 C70.0876082,415.643556 74.7283318,404.710696 84.333826,400.829825 L85.8941561,400.199411 C77.7923504,401.038371 69.7820507,396.492183 66.5781259,388.562191 C64.0085894,382.202365 65.1747525,375.260648 69.0442366,370.169172 L25.789295,387.645303 C16.1838008,391.526174 5.2509412,386.885451 1.37006963,377.279956 C-2.51080194,367.674462 2.12992163,356.741603 11.7354158,352.860731 L36.1885358,342.981029 C28.8608661,342.882119 21.9587906,338.467015 19.0415186,331.246513 C15.160647,321.641019 19.8013706,310.70816 29.4068648,306.827288 L73.2513482,289.112967 C67.9515712,287.548107 63.3903956,283.667039 61.159506,278.145393 C57.2786344,268.539899 61.919358,257.607039 71.5248522,253.726168 L161.997145,217.172989 C168.46332,214.560484 175.531009,215.809661 180.644019,219.835479 L256.794789,187.511395 C266.331089,183.463475 277.343275,187.912688 281.391195,197.448988 C283.451721,202.303284 283.310513,207.540003 281.417349,212.045906 L315.913129,197.403316 C325.44943,193.355397 336.461616,197.804609 340.509536,207.34091 C342.825888,212.797894 342.359851,218.738158 339.750392,223.580203 L363.086027,213.674813 C372.622328,209.626894 383.634514,214.076106 387.682434,223.612407 C391.730353,233.148707 387.281141,244.160894 377.74484,248.208813 L353.038871,258.695875 C360.362647,258.671748 367.334605,262.964924 370.375741,270.129392 C373.054878,276.441044 372.011825,283.399211 368.235247,288.556862 L371.90844,286.997685 C381.44474,282.949765 392.456927,287.398977 396.504846,296.935278 C400.552766,306.471579 396.103554,317.483765 386.567253,321.531684 L371.925038,327.746936 C379.999612,326.783184 388.070021,331.187555 391.407163,339.049369 C395.455082,348.58567 391.00587,359.597856 381.46957,363.645775 L335.50479,383.156667 C328.182683,386.264717 319.990483,384.363379 314.74868,378.99623 Z" id="Bg" fill="#C2FFEE"></path>
                    <g id="Group-16" transform="translate(240.000000, 0.000000)">
                        <path d="M79.6936905,233.154679 C69.480921,239.854951 55.4683679,243.699996 40.4999978,243.699996 C26.1342583,243.699996 12.6397777,240.159998 2.52798019,233.93131 L2.10000005,233.667682 L2.10000005,219.099998 C2.10000005,197.560894 19.5608938,180.1 41.0999977,180.1 C62.6391017,180.1 80.0999954,197.560894 80.0999954,219.099998 L80.0999954,232.888116 L79.6936905,233.154679 Z" id="Combined-Shape" stroke="#443C77" stroke-width="1.79999989" fill="#DE7371"></path>
                        <path d="M32.0999983,162.699994 L49.4999972,162.699994 L49.4999972,185.590223 L49.2151495,185.856946 C46.4965656,188.40255 43.6987438,189.699992 40.8369118,189.699992 C37.977577,189.699992 35.1580021,188.40478 32.3911037,185.86275 L32.0999983,185.595303 L32.0999983,162.699994 Z" id="Rectangle-7" stroke="#443C77" stroke-width="1.79999989" fill="#FCF2ED"></path>
                        <ellipse id="Oval-5" stroke="#443C77" stroke-width="1.79999989" fill="#FCF2ED" cx="11.6999995" cy="128.199996" rx="9.59999943" ry="10.4999994"></ellipse>
                        <circle id="Oval-4" fill="#443C77" cx="11.6999995" cy="128.499996" r="3.2999998"></circle>
                        <ellipse id="Oval-5" stroke="#443C77" stroke-width="1.79999989" fill="#FCF2ED" cx="69.299996" cy="128.199996" rx="9.59999943" ry="10.4999994"></ellipse>
                        <circle id="Oval-4" fill="#443C77" cx="69.899996" cy="128.499996" r="3.2999998"></circle>
                        <rect id="Rectangle-4" stroke="#443C77" stroke-width="1.79999989" fill="#FCF2ED" x="11.6999995" y="89.4999981" width="58.1999965" height="79.1999953" rx="29.0999983"></rect>
                        <path d="M59.2992154,79.5935008 C62.7315144,78.0910664 65.9423148,74.8691512 68.9140401,69.8935873 L70.1352416,67.8489278 L70.5714872,70.1902214 C73.5094718,85.958142 73.3198167,104.289786 70.538972,112.483765 L69.5929626,115.271257 L68.8184282,112.431337 C66.6214289,104.375787 61.3771535,100.315179 52.8920804,100.12117 C51.0419919,104.674364 43.6440351,104.493948 30.8962517,100.114189 C21.1996333,100.155663 15.2547522,104.236449 12.8424167,112.448199 L11.7655984,116.11376 L11.0929645,112.352984 C8.85058016,99.8155463 10.1592951,90.6714338 15.1123039,84.9610692 C19.6957222,79.6768085 25.6244227,76.8500518 33.0111169,75.7557878 C36.9390558,75.1739033 40.2417989,75.1029263 46.5675313,75.2579305 C53.8455396,75.4362691 56.2279302,75.2672063 57.893316,74.1353314 L59.2992154,73.1798156 L59.2992154,74.8796872 C59.2992154,77.3748954 59.2992154,77.7981212 59.2992154,79.5935804 Z" id="Path-3" stroke="#443C77" stroke-width="1.79999989" fill="#6C5548"></path>
                        <path d="M41.4873047,168.25293 C62.6289062,168.25293 72.3037109,148.157227 69.109375,126.426758 C67.5097656,130.866862 65.5654297,134.786458 63.2763672,138.185547 C59.1682943,144.833333 51.9052734,148.157227 41.4873047,148.157227 C31.0693359,148.157227 23.1848958,144.833333 17.8339844,138.185547 C14.7897601,127.244642 13.107794,122.660006 12.7880859,124.431641 C6.37402344,159.974609 29.6025618,168.25293 41.4873047,168.25293 Z" id="Path-17" fill="#A4816D"></path>
                        <circle id="Oval-4" fill="#443C77" cx="29.6999984" cy="127.299996" r="3.2999998"></circle>
                        <circle id="Oval-4" fill="#443C77" cx="50.6999972" cy="127.299996" r="3.2999998"></circle>
                        <rect id="Rectangle-6" fill="#DAB9A9" x="38.3999979" y="133.599995" width="4.79999971" height="8.3999995" rx="2.39999986"></rect>
                        <path d="M27.5402329,152.678901 C36.4003886,161.150128 45.2605444,161.150128 54.1207001,152.678901" id="Path-2" stroke="#443C77" stroke-width="1.79999989" stroke-linecap="round"></path>
                        <path d="M25.430858,191.473039 C36.0347637,200.928116 46.1216771,200.928116 55.6915984,191.473039" id="Path-4" stroke="#443C77" stroke-width="1.79999989" stroke-linecap="round"></path>
                        <path d="M40.8203125,199.180664 L40.8203125,240.500977" id="Path-16" stroke="#443C77" stroke-width="2"></path>
                    </g>
                    <g id="Group-16" transform="translate(291.000000, 112.000000)">
                        <path d="M94.0680524,239.991245 C81.642409,247.55695 64.5883014,251.9 46.3677143,251.9 C28.8805314,251.9 12.4566149,247.901425 0.153327051,240.867932 L-0.300002217,240.608775 L-0.300002217,219.09999 C-0.300002217,197.560886 17.1608915,180.099993 38.6999955,180.099993 L55.5,180.099993 C77.039104,180.099993 94.4999977,197.560886 94.4999977,219.09999 L94.4999977,239.728243 L94.0680524,239.991245 Z" id="Combined-Shape" stroke="#443C77" stroke-width="1.79999989" fill="#6C8EB1"></path>
                        <path d="M38.0999983,162.699994 L55.4999972,162.699994 L55.4999972,185.590223 L55.2151495,185.856946 C52.4965656,188.40255 49.6987438,189.699992 46.8369118,189.699992 C43.977577,189.699992 41.1580021,188.40478 38.3911037,185.86275 L38.0999983,185.595303 L38.0999983,162.699994 Z" id="Rectangle-7" stroke="#443C77" stroke-width="1.79999989" fill="#FCF2ED"></path>
                        <ellipse id="Oval-5" stroke="#443C77" stroke-width="1.79999989" fill="#FCF2ED" cx="17.6999995" cy="128.199996" rx="9.59999943" ry="10.4999994"></ellipse>
                        <circle id="Oval-4" fill="#443C77" cx="17.6999995" cy="128.499996" r="3.2999998"></circle>
                        <ellipse id="Oval-5" stroke="#443C77" stroke-width="1.79999989" fill="#FCF2ED" cx="75.299996" cy="128.199996" rx="9.59999943" ry="10.4999994"></ellipse>
                        <circle id="Oval-4" fill="#443C77" cx="75.899996" cy="128.499996" r="3.2999998"></circle>
                        <rect id="Rectangle-4" stroke="#443C77" stroke-width="1.79999989" fill="#FCF2ED" x="17.6999995" y="89.4999981" width="58.1999965" height="79.1999953" rx="29.0999983"></rect>
                        <circle id="Oval-4" fill="#443C77" cx="35.6999984" cy="127.299996" r="3.2999998"></circle>
                        <circle id="Oval-4" fill="#443C77" cx="56.6999972" cy="127.299996" r="3.2999998"></circle>
                        <rect id="Rectangle-6" fill="#DAB9A9" x="44.3999979" y="133.599995" width="4.79999971" height="8.3999995" rx="2.39999986"></rect>
                        <path d="M33.5402329,153.678901 C42.3773433,162.027733 51.237499,162.027733 60.1207001,153.678901" id="Path-2" stroke="#443C77" stroke-width="1.79999989" stroke-linecap="round"></path>
                        <path d="M68.1269139,110.728454 C53.5398365,114.923455 39.891914,114.927166 27.205178,110.729043 C24.7497753,115.454788 21.6726314,117.894528 17.9789057,117.894528 L17.6006118,117.894528 L17.3359174,117.624263 C11.9732267,112.148709 9.30698068,108.252546 9.34129075,105.675519 C9.40256283,101.073376 11.2479805,97.4404157 14.9270864,93.1017892 C15.4660446,92.4662168 17.23268,90.4633386 17.2990229,90.3868514 C17.8865765,89.709456 17.9593816,87.9895191 17.6910543,83.9485891 C17.6877463,83.8987836 17.6877463,83.8987836 17.6844349,83.8489546 C17.3143236,78.2797197 17.4348611,76.5361404 19.1221261,75.659391 C21.3642071,74.4943439 23.5417433,73.92203 25.8374442,73.8468759 C28.9519899,73.7449155 28.1895332,73.5663845 38.2808902,76.3218817 C39.1754423,76.5661438 39.985361,76.7777034 40.7837719,76.9735755 C42.5315157,77.402345 45.4603545,75.8522477 50.9456917,71.9330699 C51.1685576,71.7738361 51.4009062,71.6073048 51.6831195,71.4046355 C59.2134764,65.9967686 61.403217,64.7414577 63.6724369,65.6408609 C67.7549723,67.2589699 68.8113952,69.7568161 69.4864366,76.1366284 C69.766474,78.7832605 69.9014635,79.7876829 70.2183226,81.1717509 C70.4731311,82.2847763 70.7997921,83.2963992 71.22394,84.2449091 C71.8958552,85.7474942 73.4936303,86.953244 77.1791048,89.0258715 C77.3689083,89.1326127 78.0500202,89.514333 78.0289862,89.5025325 C82.8314834,92.1968343 84.8107153,93.7312035 85.6976869,96.2280256 C87.4615909,101.193409 85.6454214,105.923602 81.2260219,111.417097 C80.7316636,112.031605 80.2254176,112.633317 79.5784949,113.382614 C79.6522787,113.297154 78.4188046,114.71881 78.1227855,115.067173 C77.1649289,116.194403 76.6782145,116.873475 76.538972,117.283764 L76.3316931,117.894528 L75.6867148,117.894528 C72.3938804,117.894528 69.8833591,115.434903 68.1269139,110.728454 Z" id="Path-3" stroke="#443C77" stroke-width="1.79999989" fill="#5C3524"></path>
                        <path d="M31.430858,191.473039 C42.0347637,200.928116 52.1216771,200.928116 61.6915984,191.473039" id="Path-4" stroke="#443C77" stroke-width="1.79999989" stroke-linecap="round"></path>
                    </g>
                    <g id="Group-16" transform="translate(122.000000, 41.000000)">
                        <path d="M90.6362821,233.189354 C78.587269,239.867391 62.0538951,243.699996 44.3897615,243.699996 C27.4367371,243.699996 11.5144126,240.171402 -0.415453269,233.963394 L-0.899999946,233.711248 L-0.899999946,219.099998 C-0.899999946,197.560894 16.5608938,180.1 38.0999977,180.1 L52.0999977,180.1 C73.6391017,180.1 91.0999954,197.560894 91.0999954,219.099998 L91.0999954,232.932346 L90.6362821,233.189354 Z" id="Combined-Shape" stroke="#443C77" stroke-width="1.79999989" fill="#7A80F1"></path>
                        <path d="M36.0999983,162.699994 L53.4999972,162.699994 L53.4999972,185.590223 L53.2151495,185.856946 C50.4965656,188.40255 47.6987438,189.699992 44.8369118,189.699992 C41.977577,189.699992 39.1580021,188.40478 36.3911037,185.86275 L36.0999983,185.595303 L36.0999983,162.699994 Z" id="Rectangle-7" stroke="#443C77" stroke-width="1.79999989" fill="#FCF2ED"></path>
                        <ellipse id="Oval-5" stroke="#443C77" stroke-width="1.79999989" fill="#FCF2ED" cx="15.6999995" cy="128.199996" rx="9.59999943" ry="10.4999994"></ellipse>
                        <circle id="Oval-4" fill="#443C77" cx="15.6999995" cy="128.499996" r="3.2999998"></circle>
                        <ellipse id="Oval-5" stroke="#443C77" stroke-width="1.79999989" fill="#FCF2ED" cx="73.299996" cy="128.199996" rx="9.59999943" ry="10.4999994"></ellipse>
                        <circle id="Oval-4" fill="#443C77" cx="73.899996" cy="128.499996" r="3.2999998"></circle>
                        <rect id="Rectangle-4" stroke="#443C77" stroke-width="1.79999989" fill="#FCF2ED" x="15.6999995" y="89.4999981" width="58.1999965" height="79.1999953" rx="29.0999983"></rect>
                        <path d="M62.2992154,79.5935008 C65.7315144,78.0910664 68.9423148,74.8691512 71.9140401,69.8935873 L73.1352416,67.8489278 L73.5714872,70.1902214 C76.5094718,85.958142 76.3198167,104.289786 73.538972,112.483765 L73.3316931,113.094529 L72.6867148,113.094529 C69.3938804,113.094529 66.8833591,110.634904 65.1269139,105.928455 C50.5398365,110.123456 36.891914,110.127167 24.205178,105.929044 C21.7497753,110.654789 18.6726314,113.094529 14.9789057,113.094529 L14.2255935,113.094529 L14.0929645,112.352984 C11.8505802,99.8155463 13.1592951,90.6714338 18.1123039,84.9610692 C22.6957222,79.6768085 28.6244227,76.8500518 36.0111169,75.7557878 C39.9390558,75.1739033 43.2417989,75.1029263 49.5675313,75.2579305 C56.8455396,75.4362691 59.2279302,75.2672063 60.893316,74.1353314 L62.2992154,73.1798156 L62.2992154,74.8796872 C62.2992154,77.3748954 62.2992154,77.7981212 62.2992154,79.5935804 Z" id="Path-3" stroke="#443C77" stroke-width="1.79999989" fill="#484343" transform="translate(44.366695, 91.274803) scale(-1, 1) translate(-44.366695, -91.274803) "></path>
                        <path d="M45.4873047,168.25293 C66.6289062,168.25293 76.3037109,148.157227 73.109375,126.426758 C71.5097656,130.866862 69.5654297,134.786458 67.2763672,138.185547 C63.1682943,144.833333 55.9052734,148.157227 45.4873047,148.157227 C35.0693359,148.157227 27.1848958,144.833333 21.8339844,138.185547 C18.7897601,127.244642 17.107794,122.660006 16.7880859,124.431641 C10.3740234,159.974609 33.6025618,168.25293 45.4873047,168.25293 Z" id="Path-17" fill="#A79188"></path>
                        <circle id="Oval-4" fill="#443C77" cx="33.6999984" cy="127.299996" r="3.2999998"></circle>
                        <circle id="Oval-4" fill="#443C77" cx="54.6999972" cy="127.299996" r="3.2999998"></circle>
                        <rect id="Rectangle-6" fill="#DAB9A9" x="42.3999979" y="133.599995" width="4.79999971" height="8.3999995" rx="2.39999986"></rect>
                        <path d="M31.5402329,152.678901 C40.4003886,161.150128 49.2605444,161.150128 58.1207001,152.678901" id="Path-2" stroke="#443C77" stroke-width="1.79999989" stroke-linecap="round"></path>
                        <path d="M29.430858,191.473039 C40.0347637,200.928116 50.1216771,200.928116 59.6915984,191.473039" id="Path-4" stroke="#443C77" stroke-width="1.79999989" stroke-linecap="round"></path>
                        <path d="M44.8203125,199.180664 L44.8203125,240.500977" id="Path-16" stroke="#443C77" stroke-width="2"></path>
                    </g>
                    <g id="Group-16" transform="translate(35.000000, 6.000000)">
                        <path d="M82.5684923,233.170622 C71.5949592,239.860781 56.5386961,243.699996 40.4543284,243.699996 C25.0175168,243.699996 10.5178512,240.16535 -0.347106694,233.946109 L-0.800002217,233.686866 L-0.800002217,219.099998 C-0.800002217,197.560894 16.6608915,180.1 38.1999955,180.1 L44,180.1 C65.539104,180.1 82.9999977,197.560894 82.9999977,219.099998 L82.9999977,232.907549 L82.5684923,233.170622 Z" id="Combined-Shape" stroke="#443C77" stroke-width="1.79999989" fill="#797A85"></path>
                        <path d="M32.0999983,162.699994 L49.4999972,162.699994 L49.4999972,185.590223 L49.2151495,185.856946 C46.4965656,188.40255 43.6987438,189.699992 40.8369118,189.699992 C37.977577,189.699992 35.1580021,188.40478 32.3911037,185.86275 L32.0999983,185.595303 L32.0999983,162.699994 Z" id="Rectangle-7" stroke="#443C77" stroke-width="1.79999989" fill="#FCF2ED"></path>
                        <ellipse id="Oval-5" stroke="#443C77" stroke-width="1.79999989" fill="#FCF2ED" cx="11.6999995" cy="128.199996" rx="9.59999943" ry="10.4999994"></ellipse>
                        <circle id="Oval-4" fill="#443C77" cx="11.6999995" cy="128.499996" r="3.2999998"></circle>
                        <ellipse id="Oval-5" stroke="#443C77" stroke-width="1.79999989" fill="#FCF2ED" cx="69.299996" cy="128.199996" rx="9.59999943" ry="10.4999994"></ellipse>
                        <circle id="Oval-4" fill="#443C77" cx="69.899996" cy="128.499996" r="3.2999998"></circle>
                        <rect id="Rectangle-4" stroke="#443C77" stroke-width="1.79999989" fill="#FCF2ED" x="11.6999995" y="89.4999981" width="58.1999965" height="79.1999953" rx="29.0999983"></rect>
                        <path d="M61.8859587,106.390847 C47.2988813,110.585849 33.6509588,110.58956 20.9642228,106.391437 C18.5088202,111.117182 15.4316762,113.556922 11.7379506,113.556922 L11.1374029,113.556922 L10.9068901,113.002376 C8.59395817,107.438141 7.44898091,103.500707 7.48093918,101.100323 C7.59765118,92.334092 8.14187055,89.4113531 11.0580677,86.0492453 C11.6736704,85.339512 12.1841654,84.3961659 13.0875724,82.4314407 C13.197938,82.1911366 13.197938,82.1911366 13.3090599,81.9490237 C14.8545464,78.5845125 15.7290963,77.1891346 17.2578683,76.3947426 C18.1157527,75.9489622 22.915308,73.2038305 24.1339375,72.6904715 C26.9705569,71.4955194 29.7201923,71.4528475 34.5428168,72.6359695 C36.4801764,73.1112569 39.1521242,72.8721408 44.6620338,71.9456766 C44.9293046,71.9006837 44.9293046,71.9006837 45.1967089,71.8555407 C52.1489732,70.6815706 54.6184175,70.4610997 56.6939213,71.2837236 C57.6564345,71.6652149 60.0817202,72.5788253 60.4487782,72.7295421 C61.4267084,73.1310876 61.957842,73.4527256 62.3898752,73.9652428 C62.8873661,74.555412 64.4102409,78.626492 64.9829849,79.9073031 C65.7262175,81.5693732 66.4699558,82.6015553 68.2660146,84.7025959 C68.2876725,84.7279312 68.2876725,84.7279312 68.3093489,84.7532887 C70.5360122,87.3581323 71.4943031,88.7746714 72.3656557,91.2275259 C74.3656256,96.8574344 73.8874537,102.554861 71.8325899,108.73505 C71.4309495,109.94302 70.3398907,112.822773 70.2980168,112.946158 L70.0907379,113.556922 L69.4457596,113.556922 C66.1529253,113.556922 63.6424039,111.097297 61.8859587,106.390847 Z" id="Path-3" stroke="#443C77" stroke-width="1.79999989" fill="#765B4E"></path>
                        <circle id="Oval-4" fill="#443C77" cx="29.6999984" cy="127.299996" r="3.2999998"></circle>
                        <circle id="Oval-4" fill="#443C77" cx="50.6999972" cy="127.299996" r="3.2999998"></circle>
                        <rect id="Rectangle-6" fill="#DAB9A9" x="38.3999979" y="133.599995" width="4.79999971" height="8.3999995" rx="2.39999986"></rect>
                        <path d="M27.5402329,152.678901 C36.4003886,161.150128 45.2605444,161.150128 54.1207001,152.678901" id="Path-2" stroke="#443C77" stroke-width="1.79999989" stroke-linecap="round"></path>
                        <path d="M25.430858,191.473039 C36.0347637,200.928116 46.1216771,200.928116 55.6915984,191.473039" id="Path-4" stroke="#443C77" stroke-width="1.79999989" stroke-linecap="round"></path>
                        <path d="M40.8203125,199.180664 L40.8203125,240.500977" id="Path-16" stroke="#443C77" stroke-width="2"></path>
                    </g>
                    <g id="Group-16" transform="translate(203.000000, 149.000000)">
                        <path d="M20.636236,83.15625 L49.8862672,83.15625 L50.1812826,83.4626341 C66.3412371,100.24533 69.615184,117.20345 59.8721015,134.095872 C50.0040262,151.205004 35.7423678,151.205004 17.8259572,134.324073 L17.4846209,134.002465 L20.636236,83.15625 Z" id="Path-5" stroke="#443C77" stroke-width="2" fill="#FFF59D"></path>
                        <path d="M78.6936905,159.154679 C68.480921,165.854951 54.4683679,169.699996 39.4999978,169.699996 C25.1342583,169.699996 11.6397777,166.159998 1.52798019,159.93131 L1.10000005,159.667682 L1.10000005,145.099998 C1.10000005,123.560894 18.5608938,106.1 40.0999977,106.1 C61.6391017,106.1 79.0999954,123.560894 79.0999954,145.099998 L79.0999954,158.888116 L78.6936905,159.154679 Z" id="Combined-Shape" stroke="#443C77" stroke-width="1.79999989" fill="#FFB4C5"></path>
                        <circle id="Oval-4" fill="#443C77" cx="39.4999978" cy="137.899991" r="3.2999998"></circle>
                        <circle id="Oval-4" fill="#443C77" cx="39.4999978" cy="158.89999" r="3.2999998"></circle>
                        <path d="M31.0999983,88.6999938 L48.4999972,88.6999938 L48.4999972,111.590223 L48.2151495,111.856946 C45.4965656,114.40255 42.6987438,115.699992 39.8369118,115.699992 C36.977577,115.699992 34.1580021,114.40478 31.3911037,111.86275 L31.0999983,111.595303 L31.0999983,88.6999938 Z" id="Rectangle-7" stroke="#443C77" stroke-width="1.79999989" fill="#FCF2ED"></path>
                        <ellipse id="Oval-5" stroke="#443C77" stroke-width="1.79999989" fill="#FCF2ED" cx="10.6999995" cy="54.1999958" rx="9.59999943" ry="10.4999994"></ellipse>
                        <circle id="Oval-4" fill="#443C77" cx="10.6999995" cy="54.4999958" r="3.2999998"></circle>
                        <ellipse id="Oval-5" stroke="#443C77" stroke-width="1.79999989" fill="#FCF2ED" cx="68.299996" cy="54.1999958" rx="9.59999943" ry="10.4999994"></ellipse>
                        <circle id="Oval-4" fill="#443C77" cx="68.899996" cy="54.4999958" r="3.2999998"></circle>
                        <rect id="Rectangle-4" stroke="#443C77" stroke-width="1.79999989" fill="#FCF2ED" x="10.6999995" y="15.4999981" width="58.1999965" height="87.5999948" rx="29.0999983"></rect>
                        <circle id="Oval-4" fill="#443C77" cx="28.6999984" cy="61.2999959" r="3.2999998"></circle>
                        <circle id="Oval-4" fill="#443C77" cx="49.6999972" cy="61.2999959" r="3.2999998"></circle>
                        <rect id="Rectangle-6" fill="#8A5C47" x="37" y="70" width="4.79999971" height="8.3999995" rx="2.39999986"></rect>
                        <path d="M27,88 C35.8601557,97.4876302 44.7203114,97.4876302 53.5804672,88" id="Path-2" stroke="#443C77" stroke-width="1.79999989" stroke-linecap="round"></path>
                        <path d="M19.9014693,36.626859 C12.1052824,42.3794624 9.23872105,53.4153192 10.0846419,67.5504553 C10.3792064,72.4725572 11.1122705,77.3752508 12.0836944,81.8331825 C12.4113068,83.3366183 12.7413562,84.6647496 13.0060838,85.6005299 C13.0938921,85.9109214 13.1660822,86.1439735 13.1842055,86.1903146 C13.1789608,86.1768959 13.1770648,86.1732104 13.1467324,86.1142488 C13.1185141,86.0631158 13.1185141,86.0631158 13.022426,85.9447396 C12.8232188,85.6966357 12.8232188,85.6966357 11.9080833,85.7864073 C11.5819571,86.2771061 11.465825,86.4518417 11.4428277,86.5309819 C11.4394611,86.5176549 11.4358813,86.5036086 11.4320995,86.4889103 C11.4339884,86.4962515 11.1017788,85.1978851 10.9162935,84.4755808 C10.5735231,83.1407884 10.2139394,81.7482322 9.82870533,80.2665233 C8.74688428,76.1055624 7.66393471,72.0147972 6.6237754,68.1882194 C6.42172716,67.4449166 6.22285683,66.717417 6.02741714,66.006809 C5.00975242,62.3066355 4.10203846,59.1253327 3.33195179,56.5810362 C0.35695146,46.7519053 -0.575727239,42.1084329 -0.133120517,35.9253152 C0.452379702,27.746007 4.0723798,19.7369801 11.626339,11.1023267 C24.8595837,-4.02410953 50.5149769,-3.2196243 68.5119317,10.9894169 C77.4817127,18.0940952 79.1664987,27.184617 76.956285,42.4996913 C76.754889,43.89521 76.5593665,45.139608 76.1881907,47.4297943 C75.4089885,52.2375383 75.1423995,54.0178892 74.8850997,56.4163125 C73.7764597,66.7505125 71.8475615,75.4769747 69.4934577,82.3921382 C68.6778608,84.7879484 67.8675461,86.7814673 67.1853692,88.176688 C66.9178327,88.7238664 66.6911722,89.1330456 66.5355855,89.3490535 C66.4657172,89.4460548 66.4021502,89.5208122 66.3090107,89.5961519 C65.8469266,89.9699275 64.9911459,89.9238179 64.8318688,89.0578101 C64.7823476,88.7885576 64.8190267,88.659486 64.9441694,88.3398528 C66.4487955,84.4968133 68.7246564,74.410048 69.3535441,65.6290421 C70.314877,52.2061845 67.886165,41.8264551 61.1226421,36.3239181 C58.8202922,34.4508165 56.3449773,33.7562097 53.2655125,33.9531703 C50.9116627,34.103721 49.9372045,34.3377122 43.6330446,36.0768901 C33.9404216,38.7508698 27.7267392,39.2313825 19.9014693,36.626859 Z" id="Path-3" stroke="#443C77" stroke-width="1.79999989" fill="#FFF59D"></path>
                        <path d="M24.430858,117.473039 C35.0347637,126.928116 45.1216771,126.928116 54.6915984,117.473039" id="Path-4" stroke="#443C77" stroke-width="1.79999989" stroke-linecap="round"></path>
                    </g>
                    <g id="Group-16" transform="translate(9.000000, 180.000000)">
                        <path d="M77.6936905,153.154679 C67.480921,159.854951 53.4683679,163.699996 38.4999978,163.699996 C24.1342583,163.699996 10.6397777,160.159998 0.52798019,153.93131 L0.100000054,153.667682 L0.100000054,139.099998 C0.100000054,117.560894 17.5608938,100.1 39.0999977,100.1 C60.6391017,100.1 78.0999954,117.560894 78.0999954,139.099998 L78.0999954,152.888116 L77.6936905,153.154679 Z" id="Combined-Shape" stroke="#443C77" stroke-width="1.79999989" fill="#DAB6FF"></path>
                        <circle id="Oval-4" fill="#443C77" cx="38.4999978" cy="131.899991" r="3.2999998"></circle>
                        <circle id="Oval-4" fill="#443C77" cx="38.4999978" cy="152.89999" r="3.2999998"></circle>
                        <path d="M30.0999983,82.6999938 L47.4999972,82.6999938 L47.4999972,105.590223 L47.2151495,105.856946 C44.4965656,108.40255 41.6987438,109.699992 38.8369118,109.699992 C35.977577,109.699992 33.1580021,108.40478 30.3911037,105.86275 L30.0999983,105.595303 L30.0999983,82.6999938 Z" id="Rectangle-7" stroke="#443C77" stroke-width="1.79999989" fill="#FCF2ED"></path>
                        <ellipse id="Oval-5" stroke="#443C77" stroke-width="1.79999989" fill="#FCF2ED" cx="9.69999948" cy="48.1999958" rx="9.59999943" ry="10.4999994"></ellipse>
                        <circle id="Oval-4" fill="#443C77" cx="9.69999948" cy="48.4999958" r="3.2999998"></circle>
                        <ellipse id="Oval-5" stroke="#443C77" stroke-width="1.79999989" fill="#FCF2ED" cx="67.299996" cy="48.1999958" rx="9.59999943" ry="10.4999994"></ellipse>
                        <circle id="Oval-4" fill="#443C77" cx="67.899996" cy="48.4999958" r="3.2999998"></circle>
                        <rect id="Rectangle-4" stroke="#443C77" stroke-width="1.79999989" fill="#FCF2ED" x="9.69999948" y="9.49999812" width="58.1999965" height="87.5999948" rx="29.0999983"></rect>
                        <circle id="Oval-4" fill="#443C77" cx="27.6999984" cy="55.2999959" r="3.2999998"></circle>
                        <circle id="Oval-4" fill="#443C77" cx="48.6999972" cy="55.2999959" r="3.2999998"></circle>
                        <rect id="Rectangle-6" fill="#8A5C47" x="36" y="64" width="4.79999971" height="8.3999995" rx="2.39999986"></rect>
                        <path d="M26,82 C34.8601557,91.4876302 43.7203114,91.4876302 52.5804672,82" id="Path-2" stroke="#443C77" stroke-width="1.79999989" stroke-linecap="round"></path>
                        <path d="M18.9014693,30.626859 C11.1052824,36.3794624 8.23872105,47.4153192 9.08464191,61.5504553 C9.37920636,66.4725572 10.1122705,71.3752508 11.0836944,75.8331825 C11.4113068,77.3366183 11.7413562,78.6647496 12.0060838,79.6005299 C12.0938921,79.9109214 12.1660822,80.1439735 12.1842055,80.1903146 C12.1789608,80.1768959 12.1770648,80.1732104 12.1467324,80.1142488 C12.1185141,80.0631158 12.1185141,80.0631158 12.022426,79.9447396 C11.8232188,79.6966357 11.8232188,79.6966357 10.9080833,79.7864073 C10.5819571,80.2771061 10.465825,80.4518417 10.4428277,80.5309819 C10.4394611,80.5176549 10.4358813,80.5036086 10.4320995,80.4889103 C10.4339884,80.4962515 10.1017788,79.1978851 9.91629345,78.4755808 C9.57352315,77.1407884 9.2139394,75.7482322 8.82870533,74.2665233 C7.74688428,70.1055624 6.66393471,66.0147972 5.6237754,62.1882194 C5.42172716,61.4449166 5.22285683,60.717417 5.02741714,60.006809 C4.00975242,56.3066355 3.10203846,53.1253327 2.33195179,50.5810362 C-2.47244326,34.7077512 -0.252475894,24.4398588 14.2073937,7.91131268 C26.5329579,-6.17758728 44.2868665,-2.10367941 65.3410333,14.5191061 C69.4730919,17.7919783 72.2089744,20.9491431 73.84193,24.2542606 C75.3129949,27.2317097 75.9026997,30.319064 75.8366157,34.002856 C75.7883997,36.6906168 75.6982747,37.4046876 74.6129438,44.8242655 C74.2891065,47.0380938 74.0695596,48.6968676 73.8850997,50.4163125 C72.7764597,60.7505125 70.8475615,69.4769747 68.4934577,76.3921382 C67.6778608,78.7879484 66.8675461,80.7814673 66.1853692,82.176688 C65.9178327,82.7238664 65.6911722,83.1330456 65.5355855,83.3490535 C65.4657172,83.4460548 65.4021502,83.5208122 65.3090107,83.5961519 C64.8469266,83.9699275 63.9911459,83.9238179 63.8318688,83.0578101 C63.7823476,82.7885576 63.8190267,82.659486 63.9441694,82.3398528 C65.4487955,78.4968133 67.7246564,68.410048 68.3535441,59.6290421 C69.314877,46.2061845 66.886165,35.8264551 60.1226421,30.3239181 C57.8202922,28.4508165 55.3449773,27.7562097 52.2655125,27.9531703 C49.9116627,28.103721 48.9372045,28.3377122 42.6330446,30.0768901 C32.9404216,32.7508698 26.7267392,33.2313825 18.9014693,30.626859 Z" id="Path-3" stroke="#443C77" stroke-width="1.79999989" fill="#3B3B3A"></path>
                        <path d="M23.430858,111.473039 C34.0347637,120.928116 44.1216771,120.928116 53.6915984,111.473039" id="Path-4" stroke="#443C77" stroke-width="1.79999989" stroke-linecap="round"></path>
                    </g>
                    <g id="Group-16" transform="translate(115.000000, 221.000000)">
                        <path d="M81.6936905,159.154679 C71.480921,165.854951 57.4683679,169.699996 42.4999978,169.699996 C28.1342583,169.699996 14.6397777,166.159998 4.52798019,159.93131 L4.10000005,159.667682 L4.10000005,145.099998 C4.10000005,123.560894 21.5608938,106.1 43.0999977,106.1 C64.6391017,106.1 82.0999954,123.560894 82.0999954,145.099998 L82.0999954,158.888116 L81.6936905,159.154679 Z" id="Combined-Shape" stroke="#443C77" stroke-width="1.79999989" fill="#D0FFB4"></path>
                        <circle id="Oval-4" fill="#443C77" cx="42.4999978" cy="137.899991" r="3.2999998"></circle>
                        <circle id="Oval-4" fill="#443C77" cx="42.4999978" cy="158.89999" r="3.2999998"></circle>
                        <path d="M34.0999983,88.6999938 L51.4999972,88.6999938 L51.4999972,111.590223 L51.2151495,111.856946 C48.4965656,114.40255 45.6987438,115.699992 42.8369118,115.699992 C39.977577,115.699992 37.1580021,114.40478 34.3911037,111.86275 L34.0999983,111.595303 L34.0999983,88.6999938 Z" id="Rectangle-7" stroke="#443C77" stroke-width="1.79999989" fill="#5B473E"></path>
                        <ellipse id="Oval-5" stroke="#443C77" stroke-width="1.79999989" fill="#FCF2ED" cx="13.6999995" cy="54.1999958" rx="9.59999943" ry="10.4999994"></ellipse>
                        <circle id="Oval-4" fill="#443C77" cx="13.6999995" cy="54.4999958" r="3.2999998"></circle>
                        <ellipse id="Oval-5" stroke="#443C77" stroke-width="1.79999989" fill="#FCF2ED" cx="71.299996" cy="54.1999958" rx="9.59999943" ry="10.4999994"></ellipse>
                        <circle id="Oval-4" fill="#443C77" cx="71.899996" cy="54.4999958" r="3.2999998"></circle>
                        <rect id="Rectangle-4" stroke="#443C77" stroke-width="1.79999989" fill="#785D4F" x="13.6999995" y="15.4999981" width="58.1999965" height="87.5999948" rx="29.0999983"></rect>
                        <circle id="Oval-4" fill="#211814" cx="31.6999984" cy="61.2999959" r="3.2999998"></circle>
                        <circle id="Oval-4" fill="#211814" cx="52.6999972" cy="61.2999959" r="3.2999998"></circle>
                        <rect id="Rectangle-6" fill="#613F2F" x="40" y="70" width="4.79999971" height="8.3999995" rx="2.39999986"></rect>
                        <path d="M30,88 C38.8601557,97.4876302 47.7203114,97.4876302 56.5804672,88" id="Path-2" stroke="#211814" stroke-width="1.79999989" stroke-linecap="round"></path>
                        <path d="M22.9014693,36.626859 C15.1052824,42.3794624 12.2387211,53.4153192 13.0846419,67.5504553 C13.3792064,72.4725572 14.1122705,77.3752508 15.0836944,81.8331825 C15.4113068,83.3366183 15.7413562,84.6647496 16.0060838,85.6005299 C16.0938921,85.9109214 16.1660822,86.1439735 16.1842055,86.1903146 C16.1789608,86.1768959 16.1770648,86.1732104 16.1467324,86.1142488 C16.1185141,86.0631158 16.1185141,86.0631158 16.022426,85.9447396 C15.8232188,85.6966357 15.8232188,85.6966357 14.9080833,85.7864073 C14.5819571,86.2771061 14.465825,86.4518417 14.4428277,86.5309819 C14.4394611,86.5176549 14.4358813,86.5036086 14.4320995,86.4889103 C14.4664562,86.6224402 9.4502801,79.6440751 6.9604313,75.2128463 C2.12318528,66.6039124 -0.72222694,57.5436887 -0.723171614,47.9105737 C-0.72438807,35.5060099 4.07670186,23.1612296 14.626339,11.1023267 C27.8595837,-4.02410953 53.5149769,-3.2196243 71.5119317,10.9894169 C86.2045847,22.6270002 88.7279989,40.5049672 82.5469534,61.53668 C80.4123896,68.7997767 77.3541733,75.9339653 73.9536481,82.2292751 C72.719308,84.514379 71.5196472,86.5285377 70.5751704,87.9465367 C70.1710091,88.553328 69.8407615,89.0086854 69.6187624,89.2643643 C69.5495089,89.3441243 69.4861145,89.4103727 69.4216567,89.4673872 C69.2270177,89.6395502 69.0695771,89.7352038 68.7538068,89.733156 C68.183986,89.5978784 68.183986,89.5978784 67.9023341,89.1374334 C67.8328967,88.8226782 67.8328967,88.8226782 67.8522144,88.6740506 C67.8675198,88.5583425 67.8983371,88.4569153 67.9441694,88.3398528 C69.4487955,84.4968133 71.7246564,74.410048 72.3535441,65.6290421 C73.314877,52.2061845 70.886165,41.8264551 64.1226421,36.3239181 C61.8202922,34.4508165 59.3449773,33.7562097 56.2655125,33.9531703 C53.9116627,34.103721 52.9372045,34.3377122 46.6330446,36.0768901 C36.9404216,38.7508698 30.7267392,39.2313825 22.9014693,36.626859 Z" id="Path-3" stroke="#443C77" stroke-width="1.79999989" fill="#353532" transform="translate(42.462061, 44.890737) scale(-1, 1) translate(-42.462061, -44.890737) "></path>
                        <path d="M27.430858,117.473039 C38.0347637,126.928116 48.1216771,126.928116 57.6915984,117.473039" id="Path-4" stroke="#443C77" stroke-width="1.79999989" stroke-linecap="round"></path>
                    </g>
                    <g id="Group-16" transform="translate(87.000000, 332.000000)">
                        <path d="M129.600888,122.686722 C158.356236,102.848477 172.730749,72.0505481 172.730749,30.1894531 L172.730749,29.7107389 L173.127702,29.4431662 C179.176011,25.3662088 185.548505,25.3662088 192.074817,29.4252067 L192.482287,29.6786303 L192.498956,30.1581903 C194.243241,80.3426453 177.060917,117.641159 140.968468,141.936483 C141.717481,144.975559 142.099995,148.112867 142.099995,151.299991 L142.099995,165.088109 L141.693691,165.354673 C131.480921,172.054945 117.468368,175.89999 102.499998,175.89999 C88.1342583,175.89999 74.6397777,172.359992 64.5279802,166.131303 L64.1000001,165.867675 L64.1000001,151.299991 C64.1000001,148.711007 64.3523987,146.154183 64.8491648,143.655075 C26.9712871,119.416696 8.91414986,81.5428959 10.7001526,30.1581903 L10.7168209,29.6786303 L11.1242912,29.4252067 C17.6506035,25.3662088 24.023097,25.3662088 30.0714058,29.4431662 L30.4683593,29.7107389 L30.4683593,30.1894531 C30.4683593,72.8985688 45.4308147,104.092417 75.3659741,123.880515 C82.6362482,116.525626 92.5318914,112.299994 103.099998,112.299994 C113.068371,112.299994 122.447697,116.057191 129.600888,122.686722 Z" id="Combined-Shape" stroke="#443C77" stroke-width="1.79999989" fill="#8FE0FF"></path>
                        <path d="M182.823364,32.7124023 C188.070069,32.7124023 191.628418,31.3783732 191.628418,30.2738037 C191.628418,29.1692342 187.613771,27.2547607 182.367065,27.2547607 C177.12036,27.2547607 173.667725,29.1692342 173.667725,30.2738037 C173.667725,31.3783732 177.576659,32.7124023 182.823364,32.7124023 Z" id="Oval-16" fill="#6FC6E7"></path>
                        <path d="M94.0999983,94.8999948 L111.499997,94.8999948 L111.499997,117.790224 L111.215149,118.056947 C108.496566,120.602551 105.698744,121.899993 102.836912,121.899993 C99.977577,121.899993 97.1580021,120.604781 94.3911037,118.062751 L94.0999983,117.795304 L94.0999983,94.8999948 Z" id="Rectangle-7" stroke="#443C77" stroke-width="1.79999989" fill="#FCF2ED"></path>
                        <ellipse id="Oval-5" stroke="#443C77" stroke-width="1.79999989" fill="#FCF2ED" cx="73.6999995" cy="60.3999968" rx="9.59999943" ry="10.4999994"></ellipse>
                        <circle id="Oval-4" fill="#443C77" cx="73.6999995" cy="60.6999968" r="3.2999998"></circle>
                        <ellipse id="Oval-5" stroke="#443C77" stroke-width="1.79999989" fill="#FCF2ED" cx="131.299996" cy="60.3999968" rx="9.59999943" ry="10.4999994"></ellipse>
                        <circle id="Oval-4" fill="#443C77" cx="131.899996" cy="60.6999968" r="3.2999998"></circle>
                        <rect id="Rectangle-4" stroke="#443C77" stroke-width="1.79999989" fill="#FCF2ED" x="73.6999995" y="21.6999991" width="58.1999965" height="79.1999953" rx="29.0999983"></rect>
                        <circle id="Oval-4" fill="#443C77" cx="91.6999984" cy="59.4999969" r="3.2999998"></circle>
                        <circle id="Oval-4" fill="#443C77" cx="112.699997" cy="59.4999969" r="3.2999998"></circle>
                        <rect id="Rectangle-6" fill="#DAB9A9" x="100.399998" y="65.7999965" width="4.79999971" height="8.3999995" rx="2.39999986"></rect>
                        <path d="M121.299215,16.5935008 C124.731514,15.0910664 127.942315,11.8691512 130.91404,6.89358732 L132.135242,4.84892783 L132.571487,7.19022138 C135.509472,22.958142 135.319817,41.2897857 132.538972,49.4837649 L132.331693,50.0945287 L131.686715,50.0945287 C128.39388,50.0945287 125.883359,47.6349045 124.126914,42.9284545 C109.539836,47.1234561 95.891914,47.1271666 83.205178,42.9290438 C80.7497753,47.6547887 77.6726314,50.0945287 73.9789057,50.0945287 L73.2255935,50.0945287 L73.0929645,49.3529838 C70.8505802,36.8155463 72.1592951,27.6714338 77.1123039,21.9610692 C81.6957222,16.6768085 87.6244227,13.8500518 95.0111169,12.7557878 C98.9390558,12.1739033 102.241799,12.1029263 108.567531,12.2579305 C115.84554,12.4362691 118.22793,12.2672063 119.893316,11.1353314 L121.299215,10.1798156 L121.299215,11.8796872 C121.299215,14.3748954 121.299215,14.7981212 121.299215,16.5935804 Z" id="Path-3" stroke="#443C77" stroke-width="1.79999989" fill="#A0AAB4"></path>
                        <path d="M87.430858,123.67304 C98.0347637,133.128117 108.121677,133.128117 117.691598,123.67304" id="Path-4" stroke="#443C77" stroke-width="1.79999989" stroke-linecap="round"></path>
                        <path d="M88.1464857,81.9882712 L87.4404628,79.8776267 L89.4151447,80.9042328 C96.1727437,84.4174023 106.055541,85.2130578 116.160163,82.2044466 L118.148818,81.6123326 L117.22228,83.4689084 C112.774981,92.3803064 106.730348,96.0295221 100.436695,94.5218504 C95.0553832,93.2327338 90.2092992,88.15502 88.1464857,81.9882712 Z" id="Path-9" stroke="#443C77" stroke-width="1.8" fill="#FFFFFF"></path>
                        <path d="M20.5,33 C25.7467051,33 29.6029053,31.3965617 29.6029053,30.2919922 C29.6029053,29.1874227 25.7467051,27.2875977 20.5,27.2875977 C15.2532949,27.2875977 11.6766357,29.1874227 11.6766357,30.2919922 C11.6766357,31.3965617 15.2532949,33 20.5,33 Z" id="Oval-16" fill="#6FC6E7"></path>
                        <g id="Group-25" transform="translate(10.000000, 2.000000)" fill="#FCF2ED" stroke="#443C77" stroke-width="1.8">
                            <path d="M13.3365573,28.1993884 C12.4271791,28.5660553 11.4945293,28.7698673 10.5,28.7698673 C9.50709086,28.7698673 8.57483221,28.566722 7.66459885,28.2011749 L7.1,27.9744337 L7.1,13.1 L13.9,13.1 L13.9,27.9722049 L13.3365573,28.1993884 Z" id="Combined-Shape"></path>
                            <ellipse id="Oval-17" cx="11" cy="10" rx="11.9" ry="10.9"></ellipse>
                        </g>
                        <g id="Group-25" transform="translate(172.000000, 2.000000)" fill="#FCF2ED" stroke="#443C77" stroke-width="1.8">
                            <path d="M13.3365573,28.1993884 C12.4271791,28.5660553 11.4945293,28.7698673 10.5,28.7698673 C9.50709086,28.7698673 8.57483221,28.566722 7.66459885,28.2011749 L7.1,27.9744337 L7.1,13.1 L13.9,13.1 L13.9,27.9722049 L13.3365573,28.1993884 Z" id="Combined-Shape"></path>
                            <ellipse id="Oval-17" cx="11" cy="10" rx="11.9" ry="10.9"></ellipse>
                        </g>
                        <g id="Group-24" transform="translate(10.000000, 0.000000)" fill="#FCF2ED">
                            <path d="M21.6931216,15.54798 C12.0331266,16.6291381 6.63335005,17.1001953 5.24018408,16.9687762 C3.45647338,16.8005164 2.48337514,16.5568119 2.03518945,16.0323611 C1.57197449,15.4903236 1.71320891,14.8244349 2.18928982,14.3923347 C2.43184333,14.1721884 2.76858582,13.9931863 3.20783948,13.824286 C4.6655515,13.2637715 7.36813948,12.8111816 9.2512207,12.8111816 C12.375956,12.8111816 15.2532978,10.6871285 18.1863846,6.82654106 C19.1839197,5.51356536 21.8221175,1.48888091 22.2042071,1.02413754 C23.4269,-0.463049131 25.4375543,-0.700094882 26.995283,0.201851706 C28.645802,1.15752519 29.1466974,3.04698661 27.8238292,4.6322886 C26.5288456,6.18417427 24.7115688,9.66071437 22.4202712,15.0080379 L22.2138836,15.4896957 L21.6931216,15.54798 Z" id="Path-11" stroke="#443C77" stroke-width="1.8"></path>
                            <path d="M21.5930176,14.6535645 C23.9177246,9.22827148 25.7643229,5.69563802 27.1328125,4.05566406 C29.1855469,1.59570312 24.921875,-0.864257813 22.8994141,1.59570312 C20.8769531,4.05566406 16.2531738,13.7111816 9.2512207,13.7111816 C7.80017049,13.7111816 4.63354492,13.7111816 2.7019043,13.7111816 C2.34861754,13.7111816 1.24932372,13.5312023 1.0559082,13.7111816 C-0.352627874,15.0218695 1.26630873,18.0297763 4.63354492,18.3474121 C5.8157858,18.4589344 11.6265978,18.5620485 19.6523438,17.6855469 C20.1763179,17.628323 20.8232091,16.6176622 21.5930176,14.6535645 Z" id="Path-11"></path>
                        </g>
                        <g id="Group-24" transform="translate(180.000000, 9.500000) scale(-1, 1) translate(-180.000000, -9.500000) translate(166.000000, 0.000000)" fill="#FCF2ED">
                            <path d="M21.6931216,15.54798 C12.0331266,16.6291381 6.63335005,17.1001953 5.24018408,16.9687762 C3.45647338,16.8005164 2.48337514,16.5568119 2.03518945,16.0323611 C1.57197449,15.4903236 1.71320891,14.8244349 2.18928982,14.3923347 C2.43184333,14.1721884 2.76858582,13.9931863 3.20783948,13.824286 C4.6655515,13.2637715 7.36813948,12.8111816 9.2512207,12.8111816 C12.375956,12.8111816 15.2532978,10.6871285 18.1863846,6.82654106 C19.1839197,5.51356536 21.8221175,1.48888091 22.2042071,1.02413754 C23.4269,-0.463049131 25.4375543,-0.700094882 26.995283,0.201851706 C28.645802,1.15752519 29.1466974,3.04698661 27.8238292,4.6322886 C26.5288456,6.18417427 24.7115688,9.66071437 22.4202712,15.0080379 L22.2138836,15.4896957 L21.6931216,15.54798 Z" id="Path-11" stroke="#443C77" stroke-width="1.8"></path>
                            <path d="M21.5930176,14.6535645 C23.9177246,9.22827148 25.7643229,5.69563802 27.1328125,4.05566406 C29.1855469,1.59570312 24.921875,-0.864257813 22.8994141,1.59570312 C20.8769531,4.05566406 16.2531738,13.7111816 9.2512207,13.7111816 C7.80017049,13.7111816 4.63354492,13.7111816 2.7019043,13.7111816 C2.34861754,13.7111816 1.24932372,13.5312023 1.0559082,13.7111816 C-0.352627874,15.0218695 1.26630873,18.0297763 4.63354492,18.3474121 C5.8157858,18.4589344 11.6265978,18.5620485 19.6523438,17.6855469 C20.1763179,17.628323 20.8232091,16.6176622 21.5930176,14.6535645 Z" id="Path-11"></path>
                        </g>
                    </g>
                </g>
            </g>
        </g>
    </g>
</svg>